<?xml version="1.0" encoding="iso-8859-1"?>
<!-- Generator: Adobe Illustrator 19.0.0, SVG Export Plug-In . SVG Version: 6.00 Build 0)  -->
<svg xmlns="http://www.w3.org/2000/svg" xmlns:xlink="http://www.w3.org/1999/xlink" version="1.1" id="Layer_1" x="0px" y="0px" viewBox="0 0 512 512" style="enable-background:new 0 0 512 512;" xml:space="preserve" width="512" height="512">
<g>
	<path d="M402.345,13c-33.091,0-60,26.909-60,60s26.909,60,60,60s60-26.909,60-60S435.436,13,402.345,13z"/>
	<path d="M252.345,88c-84.536,0-135,54.404-135,145.532C117.345,474.748,172.453,512,232.013,512   c43.345,0,65.332-42.173,65.332-125.332c0-42.275,16.611-70.548,34.189-96.241c17.212-25.151,35.01-51.167,35.01-92.153   C366.544,111.232,294.767,88,252.345,88z"/>
	<path d="M289.333,60.116c16.538,0,30-13.462,30-30s-13.462-30-30-30s-30,13.462-30,30S272.794,60.116,289.333,60.116z"/>
	<path d="M211.3,60c16.538,0,30-13.462,30-30s-13.462-30-30-30s-30,13.462-30,30S194.762,60,211.3,60z"/>
	<path d="M165.656,63.229c0-16.538-13.462-30-30-30s-30,13.462-30,30s13.462,30,30,30S165.656,79.768,165.656,63.229z"/>
	<path d="M79.655,97.858c-16.538,0-30,13.462-30,30s13.462,30,30,30s30-13.462,30-30S96.193,97.858,79.655,97.858z"/>
</g>















</svg>
