<?xml version="1.0" encoding="iso-8859-1"?>
<!-- Generator: Adobe Illustrator 19.0.0, SVG Export Plug-In . SVG Version: 6.00 Build 0)  -->
<svg version="1.1" id="Capa_1" xmlns="http://www.w3.org/2000/svg" xmlns:xlink="http://www.w3.org/1999/xlink" x="0px" y="0px"
	 viewBox="0 0 511.999 511.999" style="enable-background:new 0 0 511.999 511.999;" xml:space="preserve">
<g>
	<g>
		<path d="M442.203,78.699l-18.576-18.576c-21.169-21.168-55.613-21.168-76.782,0L119.916,287.053
			c12.742,2.682,25.719,4.967,38.903,6.86l56.833-56.833l34.085,34.085c6.318,6.319,16.563,6.319,22.882,0l169.584-169.584
			C448.521,95.262,448.521,85.018,442.203,78.699z"/>
	</g>
</g>
<g>
	<g>
		<path d="M509.791,360.007c-9.411-35.917-46.294-57.485-82.22-48.074c-53.475,14.014-111.2,21.12-171.574,21.12
			c-60.369,0-118.091-7.105-171.567-21.12c-35.921-9.412-72.808,12.156-82.221,48.075c-9.415,35.924,12.152,72.809,48.074,82.222
			c64.615,16.934,133.83,25.52,205.721,25.52c71.887,0,141.099-8.586,205.714-25.52C497.64,432.816,519.205,395.931,509.791,360.007
			z M67.357,393.261c-9.07,0-15.787-7.414-16.18-16.18c-0.392-8.738,7.717-16.18,16.18-16.18c9.07,0,15.787,7.414,16.18,16.18
			C83.929,385.82,75.82,393.261,67.357,393.261z M444.645,393.261c-9.07,0-15.787-7.414-16.18-16.18
			c-0.392-8.738,7.717-16.18,16.18-16.18c9.07,0,15.787,7.414,16.18,16.18C461.216,385.82,453.108,393.261,444.645,393.261z"/>
	</g>
</g>
<g>
</g>
<g>
</g>
<g>
</g>
<g>
</g>
<g>
</g>
<g>
</g>
<g>
</g>
<g>
</g>
<g>
</g>
<g>
</g>
<g>
</g>
<g>
</g>
<g>
</g>
<g>
</g>
<g>
</g>
</svg>
