<svg height="512pt" viewBox="0 -90 512 512" width="512pt" xmlns="http://www.w3.org/2000/svg"><path d="m498.324219 120.191406 13.675781-1.210937v-118.980469h-154v40.609375h-30v-40.609375h-328v118.980469l13.675781 1.210937c23.738281 2.105469 42.332031 22.441406 42.332031 46.300782 0 23.859374-18.59375 44.195312-42.332031 46.296874l-13.675781 1.214844v118.980469h328v-42.191406h30v42.191406h154v-118.980469l-13.675781-1.214844c-23.738281-2.101562-42.332031-22.4375-42.332031-46.296874 0-23.859376 18.59375-44.195313 42.332031-46.300782zm-140.324219 140.769532h-30v-43.617188h30zm0-73.453126h-30v-43.617187h30zm0-73.449218h-30v-43.617188h30zm0 0"/></svg>