<?xml version="1.0" encoding="iso-8859-1"?>
<!-- Generator: Adobe Illustrator 19.0.0, SVG Export Plug-In . SVG Version: 6.00 Build 0)  -->
<svg version="1.1" id="Layer_1" xmlns="http://www.w3.org/2000/svg" xmlns:xlink="http://www.w3.org/1999/xlink" x="0px" y="0px"
	 viewBox="0 0 426.667 426.667" style="enable-background:new 0 0 426.667 426.667;" xml:space="preserve">
<g>
	<g>
		<g>
			<path d="M426.667,133.645H384c0,35.285-28.715,64-64,64H179.819l-73.152-128l-32,64H32c-17.664,0-32,14.336-32,32
				s14.336,32,32,32h53.333l21.333,42.667v149.333c0,11.797,9.536,21.333,21.333,21.333c11.776,0,21.333-9.536,21.333-21.333
				v-21.333c0-23.552,19.115-42.667,42.667-42.667h106.667c23.552,0,42.667,19.115,42.667,42.667v21.333
				c0,11.797,9.536,21.333,21.333,21.333c11.776,0,21.333-9.536,21.333-21.333V240.311c0-6.592-1.621-12.757-4.288-18.325
				C408.021,202.765,426.667,170.359,426.667,133.645z"/>
			
				<rect x="255.986" y="-1.731" transform="matrix(0.7069 0.7073 -0.7073 0.7069 147.8417 -164.1481)" width="32" height="196.094"/>
		</g>
	</g>
</g>
<g>
</g>
<g>
</g>
<g>
</g>
<g>
</g>
<g>
</g>
<g>
</g>
<g>
</g>
<g>
</g>
<g>
</g>
<g>
</g>
<g>
</g>
<g>
</g>
<g>
</g>
<g>
</g>
<g>
</g>
</svg>
