<?xml version="1.0" encoding="iso-8859-1"?>
<!-- Generator: Adobe Illustrator 19.0.0, SVG Export Plug-In . SVG Version: 6.00 Build 0)  -->
<svg version="1.1" id="Capa_1" xmlns="http://www.w3.org/2000/svg" xmlns:xlink="http://www.w3.org/1999/xlink" x="0px" y="0px"
	 viewBox="0 0 512 512" style="enable-background:new 0 0 512 512;" xml:space="preserve">
<g>
	<g>
		<path d="M433.285,67.507C397.073,22.713,337.425,0,256,0C174.577,0,114.93,22.713,78.717,67.508
			C39.662,115.818,29.946,187.393,49.84,280.24c10.541,49.207,38.804,105.67,75.603,151.036
			C167.669,483.332,214.034,512,255.999,512c41.969,0,88.336-28.668,130.559-80.724c36.798-45.365,65.058-101.827,75.599-151.035
			C482.055,187.39,472.34,115.815,433.285,67.507z M120.042,166.608c0-18.279,24.331-33.099,54.342-33.099
			c30.011,0,54.331,14.82,54.331,33.099s-24.321,33.088-54.331,33.088C144.373,199.697,120.042,184.888,120.042,166.608z
			 M256,369.691c-33.265,0-58.121-15.49-58.121-29.34c0-13.855,24.857-29.35,58.121-29.35c33.266,0,58.121,15.495,58.121,29.35
			C314.121,354.202,289.266,369.691,256,369.691z M347.344,199.697c-30.011,0-54.342-14.809-54.342-33.088
			s24.331-33.099,54.342-33.099c30.011,0,54.331,14.82,54.331,33.099S377.354,199.697,347.344,199.697z"/>
	</g>
</g>
<g>
</g>
<g>
</g>
<g>
</g>
<g>
</g>
<g>
</g>
<g>
</g>
<g>
</g>
<g>
</g>
<g>
</g>
<g>
</g>
<g>
</g>
<g>
</g>
<g>
</g>
<g>
</g>
<g>
</g>
</svg>
