<?xml version="1.0" encoding="UTF-8"?>
<svg xmlns="http://www.w3.org/2000/svg" xmlns:xlink="http://www.w3.org/1999/xlink" width="512" height="512" viewBox="0 0 58 59" version="1.1"><!-- Generator: Sketch 51.3 (57544) - http://www.bohemiancoding.com/sketch --><title>002 - Hearing aid</title><desc>Created with Sketch.</desc><defs/><g id="Page-1" stroke="none" stroke-width="1" fill="none" fill-rule="evenodd"><g id="002---Hearing-aid" transform="translate(0.000000, -1.000000)" fill="#000000" fill-rule="nonzero"><circle id="Oval" cx="21" cy="57" r="3"/><path d="M10.758,20.424 C11.8492474,20.5491625 12.8395379,19.7768606 12.984,18.688 C14.0175826,11.4724334 19.8143582,5.87742077 27.062,5.1 C31.6876924,4.57287737 36.319251,6.03819229 39.8,9.13 C43.3105309,12.2410405 45.2178501,16.7782807 44.9844821,21.4631436 C44.7511141,26.1480064 42.4023269,30.4732364 38.6,33.22 C36.6594912,34.6403417 35.5056884,36.8952825 35.489,39.3 L35.489,48.622 C35.4336176,52.1925203 32.4996653,55.0450733 28.929,55 C27.8244305,55 26.929,55.8954305 26.929,57 C26.929,58.1045695 27.8244305,59 28.929,59 C34.7082134,59.0427336 39.4318219,54.4000886 39.489,48.621 L39.489,39.3 C39.4952874,38.1648359 40.0461931,37.1017106 40.97,36.442 C45.7421191,32.9816273 48.6876755,27.5439558 48.9792306,21.6564865 C49.2707857,15.7690172 46.8768846,10.0669288 42.47,6.152 C38.1411513,2.3071383 32.3836182,0.480648153 26.63,1.127 C17.5484644,2.11788388 10.2959726,9.14268027 9.016,18.188 C8.94931831,18.7157209 9.09560308,19.2482659 9.42250629,19.667873 C9.74940949,20.0874801 10.2299983,20.3595789 10.758,20.424 Z" id="Shape"/><path d="M38,23 C39.1045695,23 40,22.1045695 40,21 C40,14.9248678 35.0751322,10 29,10 C22.9248678,10 18,14.9248678 18,21 C18,22.1045695 18.8954305,23 20,23 C21.1045695,23 22,22.1045695 22,21 C22.0000001,17.1340068 25.1340068,14.0000001 29,14.0000001 C32.8659932,14.0000001 35.9999999,17.1340068 36,21 C36,22.1045695 36.8954305,23 38,23 Z" id="Shape"/><path d="M54.586,1.585 L50.586,5.585 C49.8059024,6.36588507 49.8059024,7.63111493 50.586,8.412 C50.9627402,8.78360786 51.470826,8.99165713 52,8.991 C52.5287478,8.99245676 53.0367746,8.78550949 53.414,8.415 L57.414,4.415 C58.1940976,3.63411493 58.1940976,2.36888507 57.414,1.588 C56.62343,0.831856163 55.3781725,0.830535169 54.586,1.585 Z" id="Shape"/><path d="M2,58.991 C2.52874775,58.9924568 3.03677457,58.7855095 3.414,58.415 L32.414,29.415 C33.1940976,28.6341149 33.1940976,27.3688851 32.414,26.588 C31.6224967,25.8320598 30.3765033,25.8320598 29.585,26.588 L0.585,55.588 C-0.195097647,56.3688851 -0.195097647,57.6341149 0.585,58.415 C0.962472021,58.7857533 1.4709063,58.9927201 2,58.991 Z" id="Shape"/></g></g></svg>
