<?xml version="1.0" encoding="iso-8859-1"?>
<!-- Generator: Adobe Illustrator 19.0.0, SVG Export Plug-In . SVG Version: 6.00 Build 0)  -->
<svg version="1.1" id="Layer_1" xmlns="http://www.w3.org/2000/svg" xmlns:xlink="http://www.w3.org/1999/xlink" x="0px" y="0px"
	 viewBox="0 0 426.667 426.667" style="enable-background:new 0 0 426.667 426.667;" xml:space="preserve">
<g>
	<g>
		<path d="M213.333,81.775C167.211-57.681,0,11.397,0,117.658c0,177.451,213.333,305.451,213.333,305.451
			s213.333-128,213.333-305.451C426.667,11.397,259.456-57.681,213.333,81.775z M192,145.775c0-11.797,9.536-21.333,21.333-21.333
			s21.333,9.536,21.333,21.333v21.333c0,11.797-9.536,21.333-21.333,21.333S192,178.906,192,167.109V145.775z M128,188.442v-21.333
			c0-11.797,9.536-21.333,21.333-21.333s21.333,9.536,21.333,21.333v21.333c0,11.797-9.536,21.333-21.333,21.333
			S128,200.239,128,188.442z M213.333,337.775c-35.349,0-64-28.651-64-64c0-35.349,28.651-64,64-64s64,28.651,64,64
			C277.333,309.125,248.683,337.775,213.333,337.775z M298.667,188.442c0,11.797-9.536,21.333-21.333,21.333
			S256,200.239,256,188.442v-21.333c0-11.797,9.536-21.333,21.333-21.333s21.333,9.536,21.333,21.333V188.442z"/>
	</g>
</g>
<g>
</g>
<g>
</g>
<g>
</g>
<g>
</g>
<g>
</g>
<g>
</g>
<g>
</g>
<g>
</g>
<g>
</g>
<g>
</g>
<g>
</g>
<g>
</g>
<g>
</g>
<g>
</g>
<g>
</g>
</svg>
