<?xml version="1.0" encoding="iso-8859-1"?>
<!-- Generator: Adobe Illustrator 19.0.0, SVG Export Plug-In . SVG Version: 6.00 Build 0)  -->
<svg version="1.1" id="Capa_1" xmlns="http://www.w3.org/2000/svg" xmlns:xlink="http://www.w3.org/1999/xlink" x="0px" y="0px"
	 viewBox="0 0 227 227" style="enable-background:new 0 0 227 227;" xml:space="preserve">
<path d="M141,51V34h15V0H71v34h16v17H54v176h119V51H141z M108.083,88.667c6.259,0,11.333,5.074,11.333,11.333
	s-5.074,11.333-11.333,11.333c-6.259,0-11.333-5.074-11.333-11.333S101.824,88.667,108.083,88.667z M103.083,176
	c-12.15,0-22-9.85-22-22s9.85-22,22-22c12.15,0,22,9.85,22,22S115.234,176,103.083,176z M133.083,137.333
	c-7.916,0-14.333-6.417-14.333-14.333s6.417-14.333,14.333-14.333c7.916,0,14.333,6.417,14.333,14.333
	S140.999,137.333,133.083,137.333z"/>
<g>
</g>
<g>
</g>
<g>
</g>
<g>
</g>
<g>
</g>
<g>
</g>
<g>
</g>
<g>
</g>
<g>
</g>
<g>
</g>
<g>
</g>
<g>
</g>
<g>
</g>
<g>
</g>
<g>
</g>
</svg>
