<?xml version="1.0" encoding="iso-8859-1"?>
<!-- Generator: Adobe Illustrator 21.0.0, SVG Export Plug-In . SVG Version: 6.00 Build 0)  -->
<svg xmlns="http://www.w3.org/2000/svg" xmlns:xlink="http://www.w3.org/1999/xlink" version="1.1" id="Capa_1" x="0px" y="0px" viewBox="0 0 512.189 512.189" style="enable-background:new 0 0 512.189 512.189;" xml:space="preserve" width="512" height="512">
<g>
	<path d="M452.665,287.514c7.857-8.06,13.442-19.583,15.546-31.692c19.344-2.663,32.758-15.834,39.596-33.7   c2.084-5.445,5.889-15.138,3.749-20.981c-1.125-3.072-4.01-4.972-7.266-4.928c-36.869,0.368-74.474,0.377-111.844,0.036   c-6.253-23.506-18.544-45.088-36.099-62.819c-26.326-26.59-61.419-41.451-98.813-41.848c-0.504-0.005-1-0.008-1.503-0.008   c-42.658,0-82.63,19.257-109.857,52.984c-6.064,7.511,5.567,16.985,11.672,9.422c24.647-30.532,60.93-47.806,99.53-47.398   c33.419,0.354,64.782,13.636,88.313,37.401c23.546,23.782,36.514,55.313,36.514,88.782c0,40.672-19.79,79.089-52.938,102.763   c-1.971,1.408-3.141,3.682-3.141,6.104v26.62c0,17.069-11.509,31.491-27.172,35.939v-31.453c0-9.654-15-9.719-15,0v32.877h-20.441   v-32.877c0-9.654-15-9.719-15,0v32.877h-20.442v-32.877c0-9.653-15-9.719-15,0v31.452c-15.662-4.448-27.171-18.87-27.171-35.939   v-26.62c0-2.422-1.17-4.695-3.141-6.104c-33.147-23.674-52.937-62.09-52.938-102.762c0-17.187,3.485-33.9,10.358-49.677   c3.856-8.85-9.871-14.9-13.752-5.99c-2.721,6.246-4.958,12.626-6.727,19.111H7.509c-16.035,0-1.796,30.807,1.399,36.185   c7.634,12.851,20.153,21.403,34.993,23.566c4.468,23.695,20.647,43.121,45.547,45.638c5.029,26.437,24.253,45.851,51.971,45.851   h29.476v20.801c0,28.873,23.49,52.363,52.363,52.363h65.5c28.873,0,52.363-23.49,52.363-52.363v-20.801h29.477   c27.728,0,46.952-19.429,51.975-45.873C434.437,300.288,444.991,295.389,452.665,287.514z M20.986,223.291   c-2.295-4.24-3.725-8.552-4.608-12.08h100.104c-1.107,7.091-1.665,14.285-1.665,21.556c0,2.937,0.099,5.862,0.281,8.774h-64.21   C37.313,240.995,27.253,234.871,20.986,223.291z M63.986,268.621c-2.284-4.22-3.709-8.508-4.594-12.026h57.471   c1.809,10.504,4.8,20.722,8.871,30.473H96.277C82.328,285.331,71.158,281.871,63.986,268.621z M109.513,314.147   c-2.295-4.24-3.725-8.552-4.608-12.08h28.152c6.232,11.059,13.953,21.295,22.997,30.384H141.42   C126.821,332.451,116.086,326.293,109.513,314.147z M495.562,211.293c-2.137,8.306-6.443,16.536-12.73,22.468   c-6.336,5.977-15.055,7.479-23.478,7.78H445.8c-9.169,0-9.971,14.119-0.689,14.965c2.523,0.369,5.105,0.11,7.64,0.117   c-4.224,17.367-17.18,29.826-35.394,30.286c-8.122,0.206-28.86,0.056-31.028,0.044c4.054-9.733,7.033-19.931,8.833-30.412h7.439   c5.081,0.585,12.332,0.556,13.819-5.607c1.12-4.638-2.602-9.393-7.356-9.393h-12.147c0.633-10.101,0.178-20.266-1.343-30.272   C428.971,211.554,462.523,211.57,495.562,211.293z M402.505,314.147c-6.572,12.146-17.308,18.304-31.906,18.304h-14.635   c9.044-9.089,16.765-19.325,22.997-30.384h28.152C406.229,305.597,404.799,309.908,402.505,314.147z"/>
	<path d="M202.622,197.451c-26.399,0-47.876,21.478-47.876,47.876c0,26.399,21.478,47.877,47.876,47.877   c26.399,0,47.877-21.478,47.877-47.877C250.499,218.928,229.022,197.451,202.622,197.451z M202.622,278.204   c-18.128,0-32.876-14.749-32.876-32.877s14.749-32.876,32.876-32.876c18.128,0,32.877,14.748,32.877,32.876   S220.751,278.204,202.622,278.204z"/>
	<path d="M357.273,245.327c0-26.398-21.478-47.876-47.877-47.876c-26.398,0-47.876,21.478-47.876,47.876   c0,26.399,21.478,47.877,47.876,47.877C335.796,293.204,357.273,271.726,357.273,245.327z M276.52,245.327   c0-18.128,14.748-32.876,32.876-32.876s32.877,14.748,32.877,32.876s-14.749,32.877-32.877,32.877S276.52,263.455,276.52,245.327z"/>
	<path d="M239.41,328.197c9.652,0,9.668-15,0-15C229.758,313.197,229.742,328.197,239.41,328.197z"/>
	<path d="M272.609,328.197c9.652,0,9.668-15,0-15C262.957,313.197,262.941,328.197,272.609,328.197z"/>
	<path d="M68.661,388.087l-26.501-9.922l28.582-28.582c6.824-6.826-3.769-17.442-10.606-10.607l-36.823,36.823   c-3.791,3.791-2.349,10.449,2.674,12.327l26.081,9.765L8.811,438.293c-3.974,3.713-2.653,10.524,2.423,12.479l28.378,10.935   L2.193,499.303c-6.807,6.841,3.809,17.434,10.632,10.582l45.533-45.75c3.755-3.774,2.35-10.375-2.619-12.289l-27.937-10.766   l43.349-40.49C75.147,396.858,73.782,390.004,68.661,388.087z"/>
	<path d="M472.407,461.707l28.378-10.935c5.075-1.955,6.398-8.767,2.423-12.479l-43.256-40.402l26.081-9.765   c5.021-1.878,6.464-8.537,2.674-12.327l-36.822-36.823c-6.827-6.822-17.443,3.77-10.607,10.607l28.582,28.582l-26.501,9.922   c-5.122,1.918-6.486,8.772-2.489,12.505l43.349,40.489l-27.938,10.766c-4.968,1.914-6.376,8.516-2.619,12.289l45.533,45.75   c6.807,6.844,17.451-3.73,10.631-10.582L472.407,461.707z"/>
	<path d="M443.358,124.102l26.501,9.922l-28.582,28.582c-6.824,6.826,3.769,17.441,10.607,10.607l36.822-36.823   c3.79-3.79,2.348-10.449-2.674-12.327l-26.081-9.765l43.256-40.402c3.975-3.712,2.652-10.525-2.423-12.479l-28.378-10.935   l37.418-37.597c6.809-6.841-3.812-17.435-10.631-10.582l-45.533,45.75c-3.757,3.773-2.349,10.375,2.619,12.289l27.938,10.766   l-43.349,40.489C436.872,115.331,438.236,122.184,443.358,124.102z"/>
	<path d="M39.612,50.482L11.234,61.417c-5.075,1.955-6.397,8.767-2.423,12.479l43.255,40.402l-26.081,9.765   c-5.022,1.878-6.465,8.536-2.674,12.327l36.823,36.823c6.826,6.824,17.442-3.771,10.606-10.607L42.16,134.024l26.501-9.922   c5.121-1.917,6.487-8.771,2.49-12.504l-43.349-40.49l27.937-10.766c4.969-1.914,6.375-8.515,2.619-12.289L12.825,2.303   C6.016-4.539-4.625,6.033,2.193,12.885L39.612,50.482z"/>
	<path d="M116.013,100.375c1.729,0,3.467-0.595,4.882-1.81c37.558-32.245,85.542-50.004,135.114-50.004   c47.745,0,94.358,16.609,131.253,46.769c7.476,6.108,17.02-5.463,9.494-11.613c-39.566-32.343-89.551-50.155-140.747-50.155   c-53.155,0-104.609,19.044-144.886,53.623C105.997,91.586,109.173,100.375,116.013,100.375z"/>
	<path d="M400.777,404.797c-38.961,37.938-90.374,58.831-144.768,58.831c-51.823,0-101.443-19.205-139.721-54.077   c-7.135-6.501-17.287,4.543-10.102,11.088c41.046,37.396,94.254,57.989,149.822,57.989c58.325,0,113.454-22.404,155.232-63.085   C418.157,408.81,407.702,398.05,400.777,404.797z"/>
</g>















</svg>
