<svg height="511pt" viewBox="1 -16 511.99897 511" width="511pt" xmlns="http://www.w3.org/2000/svg"><path d="m256 .5c-141.386719 0-256 96.859375-256 216.339844 0 68.988281 38.21875 130.421875 97.730469 170.035156 7.019531 4.675781 9.824219 13.625 6.550781 21.398438-4.3125 10.242187-10.453125 20.898437-19.191406 30.953124-14.4375 16.621094-1.007813 42.378907 20.84375 39.695313 31.019531-3.804687 65.703125-12.839844 95.285156-32.328125 14.066406-9.269531 34.410156-13.414062 54.78125-13.414062 141.382812 0 256-96.859376 256-216.339844 0-119.484375-114.613281-216.339844-256-216.339844zm0 0" fill="#b5e9f1"/><path d="m198.65625 271.734375h-98.304688c-9.691406 0-18.5-5.625-22.578124-14.414063-4.078126-8.792968-2.679688-19.148437 3.574218-26.546874l63.664063-75.261719h-44.1875c-13.742188 0-24.886719-11.144531-24.886719-24.886719 0-13.746094 11.144531-24.886719 24.886719-24.886719h97.832031c9.691406 0 18.5 5.625 22.574219 14.414063 4.078125 8.789062 2.683593 19.144531-3.574219 26.542968l-63.660156 75.261719h44.660156c13.746094 0 24.886719 11.144531 24.886719 24.886719 0 13.746094-11.140625 24.890625-24.886719 24.890625zm0 0" fill="#c7aee4"/><path d="m387.699219 323.753906h-98.308594c-9.6875 0-18.496094-5.625-22.574219-14.414062-4.078125-8.789063-2.683594-19.148438 3.574219-26.546875l63.660156-75.261719h-44.183593c-13.746094 0-24.886719-11.144531-24.886719-24.886719 0-13.746093 11.140625-24.886719 24.886719-24.886719h97.832031c9.6875 0 18.5 5.625 22.574219 14.414063 4.078124 8.789063 2.683593 19.144531-3.574219 26.542969l-63.660157 75.265625h44.660157c13.746093 0 24.886719 11.140625 24.886719 24.886719 0 13.746093-11.140626 24.886718-24.886719 24.886718zm0 0" fill="#c7aee4"/><path d="m50.277344 88.058594c-31.578125 35.976562-50.277344 80.546875-50.277344 128.78125 0 68.988281 38.21875 130.421875 97.730469 170.039062 7.019531 4.671875 9.824219 13.621094 6.550781 21.394532-4.3125 10.246093-10.453125 20.898437-19.191406 30.953124-14.4375 16.621094-1.007813 42.378907 20.84375 39.695313 31.019531-3.804687 65.703125-12.839844 95.285156-32.328125 14.066406-9.265625 34.410156-13.414062 54.78125-13.414062 38.980469 0 75.9375-7.367188 109.007812-20.535157-37.308593-20.484375-81.117187-21.40625-202.683593-62.726562-185.210938-62.945313-112.046875-261.859375-112.046875-261.859375zm0 0" fill="#81d9e7"/></svg>