<svg height="512pt" viewBox="0 0 512 512.00079" width="512pt" xmlns="http://www.w3.org/2000/svg"><path d="m501.355469 17.832031c-.910157-3.527343-3.660157-6.277343-7.1875-7.1875-81.675781-21.0625-167.566407-10.6523435-241.847657 29.304688-16.324218 8.78125-31.761718 18.816406-46.210937 29.976562-41.34375-14.746093-87.332031-4.570312-118.644531 26.742188l-62.582032 62.578125c-3.902343 3.90625-3.902343 10.238281 0 14.144531l69.632813 69.628906c0 .003907.003906.003907.003906.007813l8.980469 8.976562-8.261719 60.703125c-.421875 3.097657.625 6.210938 2.835938 8.421875l7.273437 7.273438-59.742187 60.101562c-3.894531 3.917969-3.875 10.25.042969 14.140625 3.917968 3.894531 10.25 3.875 14.140624-.039062l59.699219-60.0625 49.972657 49.976562-84.203126 83.832031c-3.914062 3.898438-3.929687 10.230469-.035156 14.144532 1.957032 1.960937 4.523438 2.945312 7.089844 2.945312 2.550781 0 5.101562-.972656 7.054688-2.914062l84.238281-83.867188 7.265625 7.269532c1.890625 1.886718 4.4375 2.925781 7.070312 2.925781.449219 0 .898438-.027344 1.351563-.089844l60.703125-8.261719 8.980468 8.980469s0 .003906.003907.003906l69.628906 69.632813c1.953125 1.953125 4.511719 2.925781 7.070313 2.925781 2.5625 0 5.121093-.972656 7.074218-2.925781l62.578125-62.582032c31.3125-31.3125 41.492188-77.300781 26.742188-118.644531 11.160156-14.449219 21.195312-29.890625 29.976562-46.210937 39.960938-74.285156 50.367188-160.175782 29.304688-241.851563zm-403.929688 199.816407-51.328125-51.328126 55.507813-55.507812c22.847656-22.851562 55.175781-32.054688 85.9375-25.4375-40.070313 35.863281-71.054688 81.0625-90.117188 132.273438zm104.082031 178.628906-85.785156-85.785156 5.542969-40.722657 120.964844 120.964844zm199.683594 14.117187-55.511718 55.507813-51.324219-51.328125c51.210937-19.0625 96.40625-50.046875 132.269531-90.117188 6.617188 30.761719-2.585938 63.085938-25.433594 85.9375zm-121.296875-11.878906-1.191406.410156-165.628906-165.628906.410156-1.191406c52.335937-152.113281 213.996094-240.597657 369.929687-203.519531 37.074219 155.929687-51.402343 317.59375-203.519531 369.929687zm0 0"/><path d="m389.828125 109.921875-131.25 35.167969c-3.449219.925781-6.144531 3.621094-7.070313 7.074218-.925781 3.449219.0625 7.132813 2.585938 9.660157l19.5 19.496093-39.292969 39.289063c-3.902343 3.90625-3.902343 10.238281 0 14.144531 3.90625 3.902344 10.238281 3.902344 14.144531 0l46.359376-46.363281c3.90625-3.902344 3.90625-10.234375 0-14.140625l-14.320313-14.320312 97.792969-26.203126-26.203125 97.789063-14.320313-14.320313c-1.875-1.875-4.417968-2.925781-7.070312-2.925781s-5.199219 1.050781-7.074219 2.925781l-79.796875 79.800782c-3.90625 3.90625-3.90625 10.238281 0 14.144531 1.953125 1.953125 4.511719 2.925781 7.070312 2.925781 2.558594 0 5.117188-.972656 7.070313-2.925781l72.726563-72.730469 19.496093 19.496094c2.527344 2.527344 6.210938 3.511719 9.660157 2.589844 3.453124-.925782 6.148437-3.621094 7.070312-7.070313l35.167969-131.253906c.925781-3.449219-.058594-7.132813-2.585938-9.660156-2.527343-2.527344-6.210937-3.515625-9.660156-2.589844zm0 0"/><path d="m95.988281 416.011719c-3.902343-3.90625-10.234375-3.90625-14.140625 0l-78.917968 78.917969c-3.90625 3.902343-3.90625 10.234374 0 14.140624 1.953124 1.953126 4.511718 2.929688 7.070312 2.929688s5.121094-.976562 7.070312-2.929688l78.917969-78.917968c3.90625-3.902344 3.90625-10.234375 0-14.140625zm0 0"/><path d="m25.171875 433.078125c2.628906 0 5.207031-1.058594 7.070313-2.929687 1.859374-1.859376 2.929687-4.429688 2.929687-7.070313 0-2.628906-1.070313-5.207031-2.929687-7.066406-1.863282-1.863281-4.441407-2.933594-7.070313-2.933594-2.640625 0-5.210937 1.070313-7.070313 2.933594-1.859374 1.859375-2.929687 4.4375-2.929687 7.066406 0 2.640625 1.070313 5.210937 2.929687 7.070313 1.859376 1.871093 4.4375 2.929687 7.070313 2.929687zm0 0"/><path d="m201.429688 253.480469-.085938.074219c-4.113281 3.691406-4.453125 10.015624-.761719 14.125 1.972657 2.199218 4.703125 3.320312 7.445313 3.320312 2.378906 0 4.765625-.84375 6.675781-2.5625l.085937-.074219c4.109376-3.691406 4.453126-10.011719.761719-14.121093-3.691406-4.113282-10.011719-4.453126-14.121093-.761719zm0 0"/></svg>