<?xml version="1.0" encoding="iso-8859-1"?>
<!-- Generator: Adobe Illustrator 19.0.0, SVG Export Plug-In . SVG Version: 6.00 Build 0)  -->
<svg version="1.1" id="Capa_1" xmlns="http://www.w3.org/2000/svg" xmlns:xlink="http://www.w3.org/1999/xlink" x="0px" y="0px"
	 viewBox="0 0 512 512" style="enable-background:new 0 0 512 512;" xml:space="preserve">
<g>
	<g>
		<g>
			<path d="M436.993,150c0.063,0,0.112,0,0.155,0C437.106,150,437.054,150,436.993,150z"/>
			<path d="M436.744,0H328.949l-2.373,6.343c-3.384,15.615-9.741,29.663-18.926,41.777c-16.992,22.544-41.572,36.958-68.906,40.825
				v60.916c2.923,0.002,189.901,0.133,198.249,0.139c-0.07,0-0.153,0-0.249,0c41.4,0,75-33.6,75-75S478.144,0,436.744,0z"/>
			<path d="M437.148,150c0.061,0,0.101,0,0.121,0C437.247,150,437.204,150,437.148,150z"/>
		</g>
	</g>
</g>
<g>
	<g>
		<path d="M73.744,0C37.482,0,7.214,25.781,0.258,60h58.486c0,3.333,0,120,0,120c0,16.5,14.5,30,31,30s29-13.5,29-30v-75
			c0-8.401,6.599-15,15-15s15,6.599,15,15v45c0,16.5,13.5,30,30,30s30-13.5,30-30V60h15c24.6,0,46.199-11.7,60-30
			c6.599-8.701,11.1-18.9,13.5-30H73.744z"/>
	</g>
</g>
<g>
	<g>
		<path d="M0.256,90c3.704,18.246,14.156,33.926,28.488,44.742V90H0.256z"/>
	</g>
</g>
<g>
	<g>
		<path d="M90.744,482v15c0,8.284,6.716,15,15,15h241c8.284,0,15-6.716,15-15v-15H90.744z"/>
	</g>
</g>
<g>
	<g>
		<path d="M30.744,330v47c0,41.353,33.647,75,75,75h241c41.352,0,75-33.647,75-75v-47H30.744z"/>
	</g>
</g>
<g>
	<g>
		<path d="M406.744,240h-361c-8.291,0-15,6.709-15,15v45h391v-45C421.744,246.709,415.035,240,406.744,240z"/>
	</g>
</g>
<g>
</g>
<g>
</g>
<g>
</g>
<g>
</g>
<g>
</g>
<g>
</g>
<g>
</g>
<g>
</g>
<g>
</g>
<g>
</g>
<g>
</g>
<g>
</g>
<g>
</g>
<g>
</g>
<g>
</g>
</svg>
